<svg width="24" height="25" viewBox="0 0 24 25" fill="none" xmlns="http://www.w3.org/2000/svg">
<path d="M12 2.75C10.3167 2.74963 8.66196 3.18508 7.19687 4.01396C5.73178 4.84285 4.50624 6.03692 3.63954 7.47997C2.77285 8.92301 2.29452 10.5659 2.25112 12.2486C2.20772 13.9314 2.60073 15.5967 3.39188 17.0825L2.32782 20.2747C2.23968 20.539 2.22689 20.8226 2.29088 21.0938C2.35487 21.3649 2.49312 21.6129 2.69012 21.8099C2.88712 22.0069 3.1351 22.1451 3.40625 22.2091C3.67741 22.2731 3.96103 22.2603 4.22532 22.1722L7.41751 21.1081C8.7251 21.8036 10.174 22.1921 11.6541 22.244C13.1342 22.2959 14.6068 22.01 15.9599 21.4079C17.313 20.8057 18.5112 19.9033 19.4635 18.769C20.4157 17.6346 21.0971 16.2983 21.4557 14.8613C21.8144 13.4244 21.8411 11.9246 21.5336 10.4758C21.2261 9.027 20.5926 7.66732 19.6812 6.49992C18.7697 5.33253 17.6043 4.38811 16.2734 3.73836C14.9425 3.08861 13.4811 2.75061 12 2.75ZM12 20.75C10.5497 20.751 9.12479 20.3691 7.86938 19.6428C7.77747 19.5895 7.67527 19.5563 7.56957 19.5455C7.46387 19.5347 7.35707 19.5464 7.25626 19.58L3.75001 20.75L4.91907 17.2438C4.95277 17.143 4.96468 17.0362 4.95401 16.9305C4.94335 16.8248 4.91034 16.7226 4.85719 16.6306C3.94779 15.0584 3.58267 13.2299 3.81847 11.429C4.05427 9.62801 4.87781 7.9552 6.16134 6.67006C7.44487 5.38491 9.11663 4.55925 10.9173 4.32118C12.7179 4.0831 14.5468 4.44591 16.1203 5.35333C17.6937 6.26074 18.9237 7.66204 19.6194 9.33983C20.3151 11.0176 20.4378 12.8781 19.9682 14.6327C19.4987 16.3873 18.4632 17.9379 17.0225 19.0439C15.5818 20.15 13.8163 20.7497 12 20.75Z" fill="#FAA805"/>
</svg>
