<svg width="25" height="25" viewBox="0 0 25 25" fill="none" xmlns="http://www.w3.org/2000/svg">
<path d="M14.5834 12.5C14.5834 12.6989 14.5044 12.8897 14.3637 13.0303C14.2231 13.171 14.0323 13.25 13.8334 13.25H11.9584V15.125C11.9584 15.3239 11.8794 15.5147 11.7387 15.6553C11.5981 15.796 11.4073 15.875 11.2084 15.875C11.0095 15.875 10.8187 15.796 10.678 15.6553C10.5374 15.5147 10.4584 15.3239 10.4584 15.125V13.25H8.58337C8.38446 13.25 8.1937 13.171 8.05304 13.0303C7.91239 12.8897 7.83337 12.6989 7.83337 12.5C7.83337 12.3011 7.91239 12.1103 8.05304 11.9697C8.1937 11.829 8.38446 11.75 8.58337 11.75H10.4584V9.875C10.4584 9.67609 10.5374 9.48532 10.678 9.34467C10.8187 9.20402 11.0095 9.125 11.2084 9.125C11.4073 9.125 11.5981 9.20402 11.7387 9.34467C11.8794 9.48532 11.9584 9.67609 11.9584 9.875V11.75H13.8334C14.0323 11.75 14.2231 11.829 14.3637 11.9697C14.5044 12.1103 14.5834 12.3011 14.5834 12.5ZM21.3334 8V17C21.3334 17.5967 21.0963 18.169 20.6744 18.591C20.2524 19.0129 19.6801 19.25 19.0834 19.25H3.33337C2.73664 19.25 2.16434 19.0129 1.74238 18.591C1.32043 18.169 1.08337 17.5967 1.08337 17V8C1.08337 7.40326 1.32043 6.83097 1.74238 6.40901C2.16434 5.98705 2.73664 5.75 3.33337 5.75H19.0834C19.6801 5.75 20.2524 5.98705 20.6744 6.40901C21.0963 6.83097 21.3334 7.40326 21.3334 8ZM19.8334 8C19.8334 7.80109 19.7544 7.61032 19.6137 7.46967C19.4731 7.32902 19.2823 7.25 19.0834 7.25H3.33337C3.13446 7.25 2.9437 7.32902 2.80304 7.46967C2.66239 7.61032 2.58337 7.80109 2.58337 8V17C2.58337 17.1989 2.66239 17.3897 2.80304 17.5303C2.9437 17.671 3.13446 17.75 3.33337 17.75H19.0834C19.2823 17.75 19.4731 17.671 19.6137 17.5303C19.7544 17.3897 19.8334 17.1989 19.8334 17V8ZM23.5834 8.75C23.3845 8.75 23.1937 8.82902 23.053 8.96967C22.9124 9.11032 22.8334 9.30109 22.8334 9.5V15.5C22.8334 15.6989 22.9124 15.8897 23.053 16.0303C23.1937 16.171 23.3845 16.25 23.5834 16.25C23.7823 16.25 23.9731 16.171 24.1137 16.0303C24.2544 15.8897 24.3334 15.6989 24.3334 15.5V9.5C24.3334 9.30109 24.2544 9.11032 24.1137 8.96967C23.9731 8.82902 23.7823 8.75 23.5834 8.75Z" fill="#FAA805"/>
</svg>
