<svg width="25" height="25" viewBox="0 0 25 25" fill="none" xmlns="http://www.w3.org/2000/svg">
<path d="M16.9473 9.71937C17.017 9.78903 17.0723 9.87175 17.1101 9.96279C17.1478 10.0538 17.1672 10.1514 17.1672 10.25C17.1672 10.3486 17.1478 10.4462 17.1101 10.5372C17.0723 10.6283 17.017 10.711 16.9473 10.7806L11.6973 16.0306C11.6276 16.1004 11.5449 16.1557 11.4538 16.1934C11.3628 16.2312 11.2652 16.2506 11.1666 16.2506C11.0681 16.2506 10.9705 16.2312 10.8794 16.1934C10.7884 16.1557 10.7057 16.1004 10.636 16.0306L8.386 13.7806C8.24527 13.6399 8.16621 13.449 8.16621 13.25C8.16621 13.051 8.24527 12.8601 8.386 12.7194C8.52674 12.5786 8.71761 12.4996 8.91663 12.4996C9.11565 12.4996 9.30653 12.5786 9.44726 12.7194L11.1666 14.4397L15.886 9.71937C15.9557 9.64964 16.0384 9.59432 16.1294 9.55658C16.2205 9.51884 16.3181 9.49941 16.4166 9.49941C16.5152 9.49941 16.6128 9.51884 16.7038 9.55658C16.7949 9.59432 16.8776 9.64964 16.9473 9.71937ZM22.4166 12.5C22.4166 14.4284 21.8448 16.3134 20.7735 17.9168C19.7021 19.5202 18.1794 20.7699 16.3978 21.5078C14.6162 22.2458 12.6558 22.4389 10.7645 22.0627C8.87319 21.6865 7.1359 20.7579 5.77234 19.3943C4.40878 18.0307 3.48018 16.2934 3.10397 14.4021C2.72777 12.5108 2.92085 10.5504 3.6588 8.76884C4.39676 6.98726 5.64644 5.46452 7.24982 4.39317C8.8532 3.32183 10.7383 2.75 12.6666 2.75C15.2517 2.75273 17.73 3.78084 19.5579 5.60872C21.3858 7.43661 22.4139 9.91498 22.4166 12.5ZM20.9166 12.5C20.9166 10.8683 20.4328 9.27325 19.5263 7.91655C18.6197 6.55984 17.3313 5.50242 15.8238 4.87799C14.3163 4.25357 12.6575 4.09019 11.0571 4.40852C9.45679 4.72685 7.98678 5.51259 6.833 6.66637C5.67922 7.82015 4.89348 9.29016 4.57515 10.8905C4.25682 12.4908 4.4202 14.1496 5.04462 15.6571C5.66905 17.1646 6.72647 18.4531 8.08318 19.3596C9.43988 20.2661 11.0349 20.75 12.6666 20.75C14.8539 20.7475 16.9509 19.8775 18.4975 18.3309C20.0442 16.7843 20.9141 14.6873 20.9166 12.5Z" fill="#FAA805"/>
</svg>
