<svg width="25" height="25" viewBox="0 0 25 25" fill="none" xmlns="http://www.w3.org/2000/svg">
<path d="M21.6666 5H3.66663C3.2688 5 2.88727 5.15804 2.60597 5.43934C2.32466 5.72064 2.16663 6.10218 2.16663 6.5V8.75C2.16663 9.14782 2.32466 9.52936 2.60597 9.81066C2.88727 10.092 3.2688 10.25 3.66663 10.25V18.5C3.66663 18.8978 3.82466 19.2794 4.10597 19.5607C4.38727 19.842 4.7688 20 5.16663 20H20.1666C20.5645 20 20.946 19.842 21.2273 19.5607C21.5086 19.2794 21.6666 18.8978 21.6666 18.5V10.25C22.0645 10.25 22.446 10.092 22.7273 9.81066C23.0086 9.52936 23.1666 9.14782 23.1666 8.75V6.5C23.1666 6.10218 23.0086 5.72064 22.7273 5.43934C22.446 5.15804 22.0645 5 21.6666 5ZM20.1666 18.5H5.16663V10.25H20.1666V18.5ZM21.6666 8.75H3.66663V6.5H21.6666V8.75ZM9.66663 13.25C9.66663 13.0511 9.74564 12.8603 9.8863 12.7197C10.0269 12.579 10.2177 12.5 10.4166 12.5H14.9166C15.1155 12.5 15.3063 12.579 15.447 12.7197C15.5876 12.8603 15.6666 13.0511 15.6666 13.25C15.6666 13.4489 15.5876 13.6397 15.447 13.7803C15.3063 13.921 15.1155 14 14.9166 14H10.4166C10.2177 14 10.0269 13.921 9.8863 13.7803C9.74564 13.6397 9.66663 13.4489 9.66663 13.25Z" fill="#FAA805"/>
</svg>
