<svg width="25" height="25" viewBox="0 0 25 25" fill="none" xmlns="http://www.w3.org/2000/svg">
<path d="M15.2077 18.9164L12.2077 23.4164C12.1531 23.4984 12.0828 23.5688 12.0009 23.6236C11.9191 23.6785 11.8272 23.7167 11.7305 23.736C11.5354 23.775 11.3327 23.7349 11.1671 23.6245C11.0015 23.5141 10.8866 23.3425 10.8475 23.1473C10.8085 22.9522 10.8486 22.7495 10.959 22.5839L13.959 18.0839C14.0694 17.9183 14.2411 17.8033 14.4362 17.7643C14.6314 17.7253 14.834 17.7654 14.9996 17.8758C15.1652 17.9862 15.2802 18.1578 15.3192 18.353C15.3582 18.5481 15.3181 18.7508 15.2077 18.9164ZM22.0834 9.12515C22.0814 11.0142 21.3301 12.8253 19.9943 14.1611C18.6586 15.4969 16.8474 16.2482 14.9584 16.2501H12.7346L9.95775 20.4164C9.90309 20.4984 9.83281 20.5688 9.75093 20.6236C9.66905 20.6785 9.57717 20.7167 9.48054 20.736C9.38391 20.7553 9.28442 20.7554 9.18775 20.7363C9.09108 20.7172 8.99912 20.6792 8.91712 20.6245C8.83513 20.5699 8.76471 20.4996 8.70987 20.4177C8.65504 20.3358 8.61687 20.2439 8.59754 20.1473C8.57821 20.0507 8.57811 19.9512 8.59723 19.8545C8.61636 19.7578 8.65434 19.6659 8.709 19.5839L10.9318 16.2501H7.45837C6.16544 16.2501 4.92547 15.7365 4.01123 14.8223C3.09699 13.9081 2.58337 12.6681 2.58337 11.3751C2.58337 10.0822 3.09699 8.84224 4.01123 7.928C4.92547 7.01376 6.16544 6.50015 7.45837 6.50015C7.73863 6.50039 8.01837 6.52422 8.29462 6.5714C8.89276 5.01774 10.0155 3.72227 11.4684 2.90942C12.9213 2.09657 14.6128 1.81757 16.2498 2.12074C17.8867 2.42392 19.3661 3.29018 20.4315 4.56943C21.4969 5.84868 22.0813 7.46033 22.0834 9.12515ZM20.5834 9.12515C20.5774 7.66458 20.0041 6.26349 18.9845 5.21767C17.9649 4.17186 16.5788 3.56317 15.1188 3.5201C13.6589 3.47703 12.2393 4.00296 11.1598 4.98685C10.0804 5.97074 9.42546 7.33559 9.33337 8.79327C9.32771 8.89176 9.3027 8.98817 9.25978 9.077C9.21686 9.16583 9.15686 9.24533 9.08321 9.31097C8.93447 9.44354 8.73916 9.51158 8.54025 9.50015C8.34134 9.48871 8.15511 9.39872 8.02255 9.24998C7.88999 9.10124 7.82194 8.90593 7.83337 8.70702C7.8465 8.47827 7.87056 8.25233 7.90556 8.02921C7.75725 8.01017 7.6079 8.00047 7.45837 8.00015C6.56327 8.00015 5.70482 8.35573 5.07189 8.98866C4.43895 9.6216 4.08337 10.48 4.08337 11.3751C4.08337 12.2703 4.43895 13.1287 5.07189 13.7616C5.70482 14.3946 6.56327 14.7501 7.45837 14.7501H14.9584C16.4497 14.7484 17.8794 14.1552 18.9339 13.1007C19.9884 12.0462 20.5816 10.6165 20.5834 9.12515Z" fill="#FAA805"/>
</svg>
